<svg width="28" height="10" viewBox="0 0 28 10" fill="none" xmlns="http://www.w3.org/2000/svg">
<path d="M27.5479 0.36C26.7408 0.12 25.5751 0 24.0507 0L21.7192 0C21.7192 0 21.4502 0 21.2708 0L21.226 0.08C21.226 0.08 21.1363 0.12 20.957 0.16H20.7777L20.7328 0.12V0.2L20.3741 0.4L20.957 0.4C22.8401 0.4 24.4542 0.4 25.889 0.32V0.48C23.7368 0.48 21.8537 0.52 20.1948 0.52L13.7384 5.04L9.8825 1.08C9.61348 0.84 9.25479 0.68 8.85127 0.52C8.58225 0.44 8.44774 0.4 8.35807 0.36C8.35807 0.36 8.04422 0.32 8.04422 0.28C8.04422 0.28 7.1475 0.12 6.69914 0.08C6.78881 0.08 6.87848 0.08 6.87848 0.12L6.78881 0.2L6.47496 0.2C6.47496 0.2 6.43012 0.16 6.47496 0.12C6.5198 0.12 6.60947 0.12 6.6543 0.12C6.11627 0.08 5.57824 0.04 4.95053 0.04L4.68152 0.04L4.86086 0.04C4.86086 0.04 4.72635 0.08 4.63668 0.04L0.37726 0.04C0.37726 0.04 0.0634077 0.12 0.0185717 0.16C-0.0262643 0.2 0.0185717 0.28 0.0634077 0.28L0.646276 0.8L7.68553 7.28L7.90971 7.44L9.97217 9.28C10.1963 9.52 10.555 9.68 11.0931 9.8C11.6311 9.92 12.214 10 12.8865 10C13.5142 10 14.0971 9.96 14.5454 9.88C15.0835 9.8 15.5767 9.68 15.9802 9.52C16.4286 9.36 16.8321 9.12 17.2356 8.88L20.1051 7.12C20.1051 7.12 25.7993 3.16 27.7272 1.2C28.3549 0.6 27.7272 0.36 27.5479 0.28V0.36ZM21.0915 5.36L20.957 5.6C20.957 5.6 20.9122 5.6 20.8673 5.6C20.8673 5.6 20.8673 5.52 20.8673 5.44C20.8673 5.36 20.9122 5.32 20.957 5.28C20.957 5.28 21.0467 5.28 21.0915 5.28L21.1812 5.36H21.0915ZM21.7192 4.96C21.7192 4.96 21.7192 4.92 21.6295 4.92L21.8089 4.84C21.8089 4.84 22.1227 4.72 22.3469 4.6L21.7192 5V4.96ZM19.3877 5.64L19.5222 5.52L19.3877 5.68V5.64ZM20.419 6.24H20.3293V6.2H20.5535L20.4638 6.24H20.419ZM19.7913 4.96C19.7913 4.96 19.8361 5.04 19.8809 5.08L19.7016 5.24V5.04V4.88L19.7913 4.96ZM8.31324 6.36H8.40291V6.44L8.22356 6.6C8.22356 6.6 8.17873 6.6 8.13389 6.6C8.13389 6.6 8.08906 6.6 7.99938 6.52L8.17873 6.36H8.31324ZM10.286 8.44L10.1067 8.36C10.1067 8.36 10.286 8.2 10.286 8.16H10.3757H10.5102V8.28L10.3757 8.32V8.4L10.286 8.44ZM11.3172 9.44V9.48C11.3172 9.48 11.3172 9.44 11.3172 9.4V9.44ZM9.47897 7.88L9.56865 7.8L9.65832 7.88L9.56865 7.96L9.47897 7.88ZM8.35807 7.32L8.58225 7.16C8.58225 7.16 8.67192 7.28 8.58225 7.32H8.53742H8.44774H8.31324H8.35807ZM18.76 6.56H18.6704C18.6704 6.56 18.6704 6.52 18.6704 6.48L18.76 6.56ZM18.2668 5.92V6C18.2668 6 18.1323 6.04 18.0875 6.04H17.9081C17.9081 6.04 17.7736 6.12 17.5943 6.16C17.5943 6.16 17.5943 6.16 17.5943 6.08C17.5943 6.08 17.5943 6 17.6391 6C17.6391 6 17.684 6 17.7736 5.96C17.9081 5.96 18.0427 5.88 18.1323 5.8L18.2668 5.92ZM11.3621 8.96C11.3621 8.96 11.3621 9 11.3172 9.04L11.2276 8.96C11.2276 8.96 11.3173 8.96 11.3621 8.92C11.4069 8.92 11.4518 8.92 11.4518 8.92L11.3621 8.96ZM9.61348 7.32L9.3893 7.4H9.29963L9.34446 7.32L9.52381 7.04C9.52381 7.04 9.70315 7.12 9.70315 7.16C9.70315 7.16 9.70315 7.24 9.65832 7.28L9.61348 7.32ZM18.8049 5.64C18.8049 5.64 18.76 5.64 18.6704 5.64C18.6255 5.64 18.5807 5.64 18.5359 5.64C18.491 5.6 18.491 5.52 18.5359 5.48L18.7152 5.48H18.8497V5.56L18.8049 5.64ZM11.4518 8.48C11.4518 8.48 11.3621 8.56 11.3172 8.56L11.2276 8.64H11.0931L11.1827 8.4C11.2724 8.36 11.3621 8.32 11.5414 8.4C11.4966 8.44 11.4518 8.48 11.4069 8.52L11.4518 8.48ZM11.2276 7.92C11.2276 7.92 11.1379 7.92 11.0931 7.92C11.0482 7.92 11.0034 7.92 10.9586 7.88C10.9137 7.84 10.9586 7.8 10.9586 7.68L11.0931 7.56C11.1379 7.56 11.1827 7.56 11.1827 7.56C11.1827 7.56 11.1827 7.64 11.1827 7.72V7.88L11.2276 7.92ZM15.1731 8.36L15.218 8.44C15.218 8.44 15.218 8.44 15.2628 8.44C15.2628 8.44 15.2628 8.52 15.3525 8.56C15.3525 8.6 15.3525 8.64 15.3077 8.72C15.218 8.76 15.1731 8.8 15.0835 8.8C15.0835 8.8 14.9938 8.8 14.949 8.72C14.949 8.72 14.9041 8.6 14.8593 8.52C14.8593 8.44 14.8593 8.32 14.8593 8.24C14.9938 8.24 15.0835 8.24 15.1283 8.24C15.1283 8.24 15.1283 8.28 15.1283 8.32L15.1731 8.36ZM14.3213 9.08C14.3213 9.08 14.1868 9.2 14.1419 9.2C14.1419 9.2 14.0522 9.16 14.0522 9.2C14.0522 9.08 14.0522 8.96 14.1419 8.92C14.2764 8.84 14.3661 8.8 14.4109 8.88V8.92V8.96L14.3213 9.08ZM13.021 8.44L12.8417 8.6H12.7968L12.9762 8.4H13.021V8.44ZM12.0346 4.28C12.0346 4.28 12.0346 4.32 12.0346 4.36C12.0346 4.36 12.0346 4.36 11.9898 4.36C11.9898 4.36 11.9898 4.28 11.9898 4.16L12.1243 4.28H12.0346ZM12.5278 9.08C12.5278 9.08 12.4381 9.28 12.3933 9.32C12.3933 9.32 12.3036 9.36 12.2588 9.36C12.3485 9.24 12.3485 9.12 12.2588 9.04L12.4382 8.96L12.5727 9.08H12.5278ZM9.29963 5.52C9.29963 5.52 9.20996 5.64 9.16512 5.6C9.16512 5.6 9.16512 5.56 9.16512 5.52V5.44C9.16512 5.44 9.34446 5.36 9.3893 5.44L9.29963 5.52ZM13.5142 9.24L13.4245 9.32C13.4245 9.32 13.29 9.32 13.2452 9.24L13.3797 9.12C13.3797 9.12 13.4245 9.12 13.5142 9.12V9.24Z" fill="#F5B3BF"/>
</svg>
