<svg width="117" height="46" viewBox="0 0 117 46" fill="none" xmlns="http://www.w3.org/2000/svg">
<path d="M60.3483 15.2062C60.3483 15.2062 60.3217 15.0051 60.4281 14.9158L59.497 14.9158L60.3483 15.2062ZM64.1528 15.988C64.3657 15.988 64.4721 15.9657 64.4721 15.8987L64.7914 15.8987L64.8978 15.8093L65.0042 15.8093C65.084 15.5636 65.0574 15.2732 64.8978 14.9158C64.6317 14.9158 64.3657 15.0275 64.1528 15.2732L64.1528 15.988ZM69.4739 16.6135L69.4739 15.8987C69.3408 15.787 69.2078 15.72 69.0482 15.72L68.8353 15.72L68.8353 16.3455L69.4739 16.6135ZM67.239 17.105C67.5317 17.306 67.7179 17.4401 67.7711 17.5071L67.984 16.7922C67.7711 16.2561 67.3987 15.8987 66.8134 15.72L66.8134 16.4348C66.8134 16.6806 66.973 16.9039 67.239 17.105ZM63.3015 16.0774L62.7694 16.0774L63.3547 16.3008C63.3547 16.3008 63.3547 16.1891 63.3015 16.1668L63.3015 16.0774ZM66.1748 16.971L66.1748 16.7922C66.1748 16.6135 66.1482 16.4795 66.0684 16.3901C66.0152 16.3008 65.8556 16.2561 65.6427 16.2561L65.6427 17.105L66.0684 17.2614L66.0684 17.239L66.1748 16.971ZM68.4097 17.239L69.0482 17.0603C69.0482 16.8816 68.9152 16.6135 68.6225 16.2561C68.4895 16.3678 68.4097 16.7029 68.4097 17.239ZM67.7711 17.6858L67.2656 17.6858L67.8509 17.8869C67.8509 17.8869 67.8509 17.7305 67.7711 17.6858ZM69.6601 18.5347L69.4739 18.0432L69.1546 17.7752L67.984 17.6858L67.9308 17.9315L69.6601 18.5347Z" fill="#471515"/>
<path d="M50.33 15.0031L50.8591 15.0031C51.0708 15.0031 51.1766 15.0698 51.1766 15.1812L51.2824 15.1812L51.3883 15.0031L51.5999 14.825L50.33 14.825L50.33 15.0031Z" fill="#471515"/>
<path d="M60.3491 15.2062C60.3491 15.2062 60.3225 15.0051 60.4289 14.9158L59.4977 14.9158L60.3491 15.2062ZM67.9315 17.9315L67.8517 17.8869C67.8517 17.8869 67.8783 18.0209 67.8783 18.1326L67.9315 17.9315Z" fill="#471515"/>
<path d="M58.5693 0.531448C57.8511 0.955785 57.5054 1.42479 57.5054 1.96079L56.1222 12.3235C55.9892 13.2169 56.4414 13.8422 57.5054 14.1995L59.5002 14.9142L60.4312 14.9142C60.4312 14.9142 60.2982 15.0929 60.3514 15.2045L59.5002 14.9142C57.6916 14.9142 56.468 14.9142 55.8563 14.8249L55.8563 14.9142L55.9626 15.0035C56.2552 15.0035 56.4414 15.0259 56.4946 15.0929L56.8138 15.5396L56.9202 15.7182L57.2394 16.0756C56.9734 16.1426 56.601 16.1649 56.1754 16.1649C55.9626 16.1649 55.8031 16.1649 55.6435 16.0756L55.2179 16.0756L55.0051 15.8969L54.8987 15.6289L54.6859 15.2715L54.6859 14.8249L51.6005 14.8249C51.6005 15.4725 51.4675 16.0756 51.1749 16.6116C50.9621 16.1426 50.6961 15.8076 50.3238 15.6289L50.3238 15.8076L49.579 15.7182C49.5258 15.6066 49.4726 15.3832 49.4726 15.0929L49.4726 14.8249C46.9192 14.8249 42.956 14.7579 37.5565 14.6462C26.7841 14.2219 15.1074 13.5742 2.55286 12.6809C1.9145 12.6809 1.38253 12.8372 0.903755 13.1722C0.451581 13.5072 0.212199 13.9315 0.212199 14.4675L0.637774 26.7956C0.637774 27.9793 1.32933 28.6046 2.65926 28.6716L17.0224 29.4756C17.0224 29.4756 17.0756 29.2746 17.1288 29.2076L17.6608 29.297C17.6608 29.4086 17.6608 29.498 17.5544 29.565C22.023 29.8553 28.8854 30.1903 38.0885 30.5477C43.6741 30.8157 51.2813 31.039 60.91 31.2177L57.1862 32.4237C56.202 32.781 55.6967 33.2947 55.6967 33.9423C55.6967 34.121 55.7765 34.389 55.9095 34.7464L59.9524 44.3051C60.0854 44.5954 60.3514 44.8634 60.6972 45.1091C61.043 45.3324 61.4685 45.4664 61.9739 45.4664C62.2665 45.4664 62.4793 45.4218 62.6123 45.3771C64.8731 44.7741 67.5064 44.0147 70.4854 43.0544L75.5923 41.4464C78.9172 40.4861 89.2374 37.404 106.553 32.1557L109.638 31.173L109.718 31.173L111.846 30.4807C118.31 28.3813 118.549 20.8103 112.245 18.4429L106.154 16.1426L60.4844 0.442117C60.2716 0.375116 59.979 0.352781 59.6332 0.352781C59.1279 0.352781 58.7821 0.419781 58.5693 0.531448ZM45.3233 16.1649L45.0041 16.1649C45.0041 16.2766 44.8977 16.2542 44.6849 16.0756C44.5519 15.7182 44.6849 15.4726 45.1105 15.3609L45.3233 16.1649ZM27.8746 15.4502L27.8746 15.2715C27.8746 15.2715 27.981 15.2492 27.981 15.1822L28.1938 15.1822C28.1938 15.1822 28.3268 15.2269 28.3534 15.3162C28.4066 15.4056 28.38 15.4726 28.3002 15.5396L28.1938 15.8969C28.1938 15.8969 28.1672 15.7852 28.0874 15.7182L27.981 15.6289L27.8746 15.4502ZM17.98 16.2542L18.1928 15.7182L18.6184 16.3436L18.4056 16.6116L17.98 16.2542ZM60.91 42.6971L60.6972 42.7864C60.6972 42.7864 60.4578 42.6971 60.378 42.5184C60.5908 42.5184 60.6972 42.4514 60.6972 42.3397L60.91 42.6971ZM61.1228 40.0171L61.4419 40.9104C61.0962 40.9774 60.8302 41.0891 60.6972 41.2677C60.2716 40.9104 60.0588 40.5531 60.0588 40.1957C60.0588 40.0171 60.2716 39.7267 60.6972 39.3024C60.8302 39.3024 60.9898 39.5481 61.1228 40.0171ZM60.91 38.141C60.91 38.3867 60.8834 38.5654 60.8036 38.677C60.6706 38.677 60.511 38.5207 60.378 38.2304L60.4844 37.9624L60.6972 37.6944L60.91 38.141ZM60.6972 15.3386C60.6972 15.3386 60.5376 15.3609 60.4312 15.3609C60.4046 15.3162 60.378 15.2715 60.3514 15.2269L60.6972 15.3386ZM47.6639 19.1129C47.6639 18.6886 47.8501 18.4876 48.1959 18.4876L48.3023 19.1129C48.3023 19.2246 48.2491 19.2916 48.0895 19.2916L47.9831 19.4702L48.3023 19.6489C48.3023 19.6489 48.0895 19.8499 48.0895 19.9169L47.9831 20.0062L47.9831 20.1849L47.4511 20.0062C47.4511 19.7159 47.5309 19.4926 47.6639 19.3809L47.7703 19.4702C47.7703 19.2246 47.7437 19.1129 47.6639 19.1129ZM46.3872 18.6662C46.3872 18.6662 46.0414 18.7556 45.536 18.7556L45.6424 17.5942L46.1744 17.6836L46.2808 17.6836L46.4936 17.5942C46.4936 17.5942 46.6798 17.5049 46.8128 17.5049C46.8926 17.6166 46.9192 17.8622 46.9192 18.2196L47.4511 18.2196L47.4511 19.0236L47.3447 19.1129L47.3447 19.2916L47.2383 19.3809L46.8128 19.3809C46.6798 19.0906 46.6 18.8226 46.5468 18.5769C46.5202 18.3312 46.467 18.1526 46.3872 18.0409L46.3872 18.6662ZM35.6414 17.3262L35.9606 17.0582L36.1734 17.1476C36.1734 17.1476 36.3064 17.1699 36.333 17.1922C36.3862 17.2146 36.4394 17.2592 36.4925 17.3262L36.5989 17.4156C36.5989 17.8399 36.4393 18.0409 36.067 18.0409L35.6414 17.9516L35.6414 17.3262ZM34.5775 17.8622L34.2583 17.8622L34.2583 17.5049L34.5775 17.5049L34.5775 17.8622ZM59.2609 16.4329L59.58 16.4329L59.6864 17.1476L59.0481 17.1476L59.0481 16.5222L59.1545 16.5222L59.2609 16.4329ZM62.1335 16.5222L61.9207 16.7009C61.9207 16.7009 61.8143 16.8796 61.6015 16.8796L61.6015 16.6116L61.4951 16.5222C61.7079 16.1649 61.9207 16.1649 62.1335 16.5222ZM65.6445 17.0582L65.6445 16.2542C65.8573 16.2542 66.0169 16.2989 66.0701 16.3882C66.1499 16.4776 66.1765 16.6116 66.1765 16.7902L66.1765 16.9689L66.0701 17.2369L66.0701 17.2592C66.0701 17.4826 66.0435 17.6166 65.9637 17.6836L65.9637 17.8622L65.4317 17.6836C65.5913 17.4602 65.6445 17.2592 65.6445 17.1029L65.6445 17.0582ZM67.9852 17.6836L69.1555 17.7729L69.4747 18.0409L69.6609 18.5322L69.6609 18.5769C69.6609 18.5769 69.4481 18.6662 69.1555 18.6662L68.7299 18.5769C68.7299 18.5769 68.6235 18.7556 68.6235 19.1129L68.198 19.1129C67.9852 19.0459 67.8522 18.9342 67.7724 18.7556L67.3468 18.5769C67.3468 18.5769 67.2138 18.3982 67.134 18.3982L67.134 17.6836L67.7724 17.6836C67.7724 17.6836 67.8522 17.7729 67.8522 17.8846L67.932 17.9292L67.9852 17.6836ZM62.4527 22.1503L62.4527 22.2396L62.3463 22.3289L62.1335 22.3289C62.1335 22.3289 61.9739 22.2396 61.8143 22.2396C61.8941 22.1726 62.0005 21.9493 62.1335 21.5249L62.1335 21.0783C62.1335 21.0783 62.2399 21.0113 62.2399 20.8996C62.3197 21.0113 62.3995 21.0783 62.4527 21.0783L62.4527 21.1676C62.4527 21.1676 62.6389 21.2569 62.7719 21.4356L62.7719 21.9716C62.7719 21.9716 62.6123 21.9716 62.4527 22.1503ZM60.2184 21.8823L60.5376 21.8823L60.5376 22.6863L60.2184 22.6863L60.2184 21.8823ZM58.7289 22.5076L58.4097 22.1503L58.7289 21.2569L58.8353 21.5249L59.0481 21.8823C59.0481 22.1279 58.9417 22.3289 58.7289 22.5076ZM65.8573 21.6143L65.8573 20.8103L66.2829 20.8103L66.2829 21.6143L65.8573 21.6143ZM57.0266 21.0783C57.0266 21.0783 56.9202 21.2569 56.7074 21.2569L56.3882 21.3463L56.601 20.4529L56.8138 20.6316L56.9202 20.8103C56.9202 20.8103 57.0266 20.9666 57.0266 21.0783ZM59.2609 20.4529C59.2609 20.4529 59.2077 20.3636 59.0481 20.3636L59.2609 19.6489L59.6864 19.6489L59.58 20.6316C59.58 20.6316 59.4205 20.5646 59.2609 20.4529ZM60.5376 18.6662C60.5376 18.9566 60.5376 19.1352 60.4312 19.2022C60.2184 19.0236 60.0056 18.6886 59.7928 18.2196L60.5376 18.0409L60.5376 18.6662ZM61.176 18.0409L61.4951 18.0409L61.4951 18.5769L61.176 18.5769L61.176 18.0409ZM54.6859 18.8449C54.5529 18.8449 54.3667 18.6886 54.154 18.3982L54.154 18.3089C54.154 18.0186 54.2337 17.7952 54.3667 17.6836C54.5795 17.6836 54.7923 17.7952 55.0051 18.0409L55.0051 18.5769C55.0051 18.7556 54.8987 18.8449 54.6859 18.8449ZM56.9202 18.6662L57.3458 18.7556L57.3458 19.2022L56.9202 19.1129L56.9202 18.6662ZM52.6644 19.4702L52.1325 19.4702L52.3453 17.8622L52.6644 19.4702ZM51.8133 19.2022L51.4941 19.4702C51.2281 19.2246 51.0685 19.0459 51.0685 18.9342C51.0685 18.6439 51.2281 18.5099 51.4941 18.5769C51.7069 18.7556 51.8133 18.9566 51.8133 19.2022ZM49.047 19.5596C49.047 19.5596 48.914 19.5372 48.8343 19.6489C48.8343 19.1799 48.9938 18.8449 49.2598 18.6662L49.2598 19.3809L49.1534 19.4702L49.047 19.4702L49.047 19.5596ZM49.6854 19.2022L50.111 19.1129L50.3238 19.6489L50.0046 19.6489L49.6854 19.2022ZM58.1969 19.5596L58.1969 19.2022L58.3033 19.1129L58.3033 19.0236C58.3033 19.0236 58.0639 19.0012 57.9841 18.9342L58.1969 18.1302L58.4097 18.2196L58.5161 18.2196L58.6225 18.3089L58.6225 19.0236C58.9151 19.2022 59.0481 19.3586 59.0481 19.4702C59.0481 19.9392 58.9417 20.2519 58.7289 20.3636L58.6225 20.2743L58.6225 20.1849C58.6225 20.1849 58.4097 20.0732 58.4097 20.0062C58.2767 19.9392 58.1969 19.8052 58.1969 19.5596ZM64.155 19.6489C63.889 19.4702 63.7294 19.1352 63.7294 18.6662L63.7294 18.2196C64.022 18.2866 64.2348 18.4652 64.3678 18.7556C64.5274 19.0459 64.5806 19.3586 64.5806 19.6489L64.155 19.6489ZM65.6445 19.1129L65.3253 19.0236C65.1923 19.2022 64.9795 19.2022 64.687 19.0236C64.687 18.7779 64.7667 18.5546 64.8997 18.3089L66.0701 18.5769L65.9637 19.0236L65.7509 19.0236L65.6445 19.1129ZM63.9422 17.5049L63.7294 17.7729L63.3038 17.5049L63.4102 17.1476L63.9422 17.5049ZM58.7289 17.8622L58.4097 17.8622L58.4097 17.3262L58.7289 17.3262L58.7289 17.8622ZM50.3238 17.4156C50.3238 17.4156 50.2972 17.5049 50.2174 17.5049L50.111 17.6836L49.8982 17.7729L49.7918 17.8622L49.7918 18.0409L49.8982 18.1302L49.8982 18.3089L49.579 18.6662L49.2598 18.3089L49.2598 17.6836L49.4726 17.5942L49.4726 17.4156C49.4726 17.4156 49.6322 17.3486 49.6854 17.2369C49.7652 17.1699 49.8716 17.1476 50.0046 17.1476L50.2174 17.3262C50.2174 17.3262 50.3238 17.3486 50.3238 17.4156ZM40.2163 17.1476L40.5355 17.1476L40.5355 17.6836L40.2163 17.6836L40.2163 17.1476ZM43.5146 17.7729C43.5146 17.5272 43.6741 17.3039 43.9401 17.0582L44.2593 17.4156C44.2593 17.5942 44.2593 17.7059 44.1529 17.7729L44.1529 18.1302C43.8071 18.1302 43.5943 18.0186 43.5146 17.7729ZM41.7059 18.0409L41.7059 18.7556L41.1739 18.7556L41.1739 18.1302C41.3335 18.1302 41.3867 18.1302 41.3867 18.0409L41.7059 18.0409ZM52.0261 20.4529C52.0261 20.4529 52.1325 20.2966 52.1325 20.1849L52.3453 19.9169L52.9836 20.0062L53.09 20.1849L53.09 20.3636C53.09 20.3636 53.1964 20.4306 53.1964 20.5423C53.1964 20.7879 53.0634 20.9219 52.7708 20.9889L52.4516 21.2569C52.4516 21.2569 52.3453 21.5249 52.1325 21.7036L52.0261 21.6143L51.9197 21.4356L51.8133 21.4356L51.7069 21.2569L51.7069 20.7209C51.9197 20.7209 52.0261 20.6316 52.0261 20.4529ZM35.2158 20.7209C34.7902 20.6092 34.5775 20.3636 34.5775 20.0062L35.2158 20.0956L35.2158 20.7209ZM54.0476 21.6143L54.0476 20.8103L54.7923 21.0783C54.7923 21.3686 54.6859 21.6143 54.4731 21.7929L54.0476 21.6143ZM56.601 21.6143L57.133 21.6143L56.8138 22.6863L56.601 21.6143ZM5.63828 22.2396L5.95747 22.2396L6.17026 22.3289C6.32985 22.4406 6.38305 22.7533 6.38305 23.2223C6.38305 23.3339 6.35645 23.4009 6.27665 23.4009C6.35645 23.1106 6.25006 22.8649 5.95747 22.6863C5.90428 22.6863 5.71809 22.6193 5.4255 22.5076C5.29251 22.5076 5.21271 22.3959 5.21271 22.1503C5.2925 22.2173 5.4255 22.2396 5.63828 22.2396ZM86.1253 23.9369C86.1253 23.9369 86.019 23.8253 86.019 23.5796L86.1253 23.2223L86.2317 22.8649C86.5243 23.1106 86.6573 23.3339 86.6573 23.5796L86.6573 24.6516L86.1253 23.9369ZM84.7422 23.4009L84.5294 23.4903L84.5294 23.4009L84.3166 23.4009L84.423 22.6863L84.7422 22.6863C84.8752 23.0436 84.8752 23.2893 84.7422 23.4009ZM69.0491 17.0582L68.4107 17.2369C68.4107 16.7009 68.4905 16.3659 68.6235 16.2542C68.9161 16.6116 69.0491 16.8796 69.0491 17.0582ZM68.8363 15.7182L69.0491 15.7182C69.2087 15.7182 69.3417 15.7852 69.4747 15.8969L69.4747 16.6116L68.8363 16.3436L68.8363 15.7182ZM67.9852 16.7902L67.7724 17.5049C67.7724 17.5049 67.533 17.3039 67.2404 17.1029C66.9744 16.9019 66.8148 16.6786 66.8148 16.4329L66.8148 15.7182C67.4 15.8969 67.7724 16.2542 67.9852 16.7902ZM63.3038 16.0756L63.3038 16.1649C63.3038 16.1649 63.357 16.2319 63.357 16.2989C63.4102 16.3659 63.4102 16.4776 63.4102 16.6116C63.4102 16.8572 63.357 17.0806 63.1974 17.3262C62.7719 17.4379 62.5059 17.4379 62.3463 17.3262L62.2399 17.0582L62.4527 16.9689C62.4527 16.9689 62.3463 16.8349 62.3463 16.7456C62.3463 16.6562 62.3197 16.5892 62.2399 16.5222C62.3995 16.4106 62.4527 16.2542 62.4527 16.0756L63.3038 16.0756ZM58.3033 15.5396L58.4097 14.9142C58.8353 14.9142 59.0481 15.1599 59.0481 15.6289L58.9417 15.8076L58.9417 15.9862L58.8353 15.9862L58.7289 16.1649L58.3033 15.5396ZM54.6859 16.1649L55.2179 16.1649C55.4307 16.3436 55.5105 16.6116 55.4307 16.9689C55.2179 17.0806 54.9519 16.9912 54.5795 16.7009C54.5795 16.4106 54.6327 16.2319 54.6859 16.1649ZM31.492 16.7009L31.8112 17.3262C31.5984 17.5049 31.359 17.5942 31.0665 17.5942C31.0665 17.2369 31.226 16.9466 31.492 16.7009ZM17.6608 17.9516L17.98 17.6836L17.98 18.2196L17.6608 17.9516ZM36.3862 18.7556L36.067 18.7556L35.8542 18.6662C35.8542 18.3089 35.9606 18.1526 36.1734 18.2196C36.333 18.2196 36.4925 18.3312 36.7053 18.5769L36.8117 18.6662L36.9181 18.8449L36.3862 18.7556ZM38.7268 19.2916C38.7268 19.2916 38.78 19.1576 38.8332 19.0682C38.913 18.9789 38.9928 18.9342 39.046 18.9342C39.1258 18.9342 39.2322 19.0459 39.3652 19.2916L39.6844 19.7382L39.2588 20.1849L38.4076 20.0062L38.6204 19.6489L38.7268 19.2916ZM11.9155 27.957C11.5698 28.024 11.0378 28.0463 10.3196 28.0463C10.1068 28.0463 9.89405 27.957 9.68126 27.7783C9.25568 27.6666 9.0163 27.7113 8.9365 27.957C8.88331 27.957 8.72371 27.8676 8.51093 27.689C8.45773 27.689 8.40453 27.622 8.40453 27.5103C8.27154 27.5103 8.13855 27.5773 7.97895 27.689C7.84596 27.8006 7.71297 27.8676 7.55338 27.8676L6.48944 27.5996L5.5319 27.3316C4.84034 27.2646 4.36156 27.3316 4.14877 27.5103C4.01578 27.622 3.7232 27.689 3.29762 27.689C3.16463 27.689 3.05823 27.622 2.97843 27.5103C2.84544 27.3986 2.73905 27.3316 2.65926 27.3316C2.65926 27.2646 2.65926 27.1753 2.71245 27.0636C2.76565 26.952 2.76565 26.7733 2.76565 26.5276C2.97844 26.416 3.13803 26.3266 3.19123 26.2596L3.51041 25.9916L3.51041 25.6343L3.08483 25.4556C3.08483 25.4556 2.92524 25.2769 2.97843 25.2769C2.84544 25.2769 2.95184 25.1876 3.29762 25.0089L3.29762 24.4729C3.29762 24.4729 2.97844 24.3166 2.76565 24.3836L2.76565 23.1329L2.97843 22.6863C3.19122 22.5076 3.29762 22.3289 3.29762 22.1503C3.29762 22.0833 3.19122 21.9716 2.97843 21.7929L2.76565 21.3463C2.76565 21.1676 2.81885 21.0559 2.87205 20.9889C2.95184 20.9219 2.95184 20.7209 2.87205 20.3636C2.95184 20.1179 3.13803 20.0062 3.40401 20.0062L3.40401 21.0783C3.5636 21.4356 3.72319 21.5473 3.93598 21.4356C4.30836 21.4356 4.54775 21.5026 4.68075 21.6143C4.62755 21.7929 4.33496 21.9716 3.82959 22.1503C3.35081 22.3289 3.08483 22.6639 3.08483 23.1329C3.08483 23.3116 3.19122 23.4679 3.40401 23.5796C3.48381 23.6466 3.59021 23.6689 3.7232 23.6689C3.80299 23.5573 3.90939 23.5573 4.04238 23.6689C4.25517 24.0933 4.46796 24.2943 4.68075 24.2943C4.84034 24.2943 4.94673 24.2273 5.05312 24.1156C5.15952 24.0039 5.21271 23.9146 5.21271 23.8476C5.50529 23.9593 5.74469 23.9146 5.95747 23.6689C5.95747 23.9593 6.06386 24.2273 6.22345 24.4729C6.40964 24.7186 6.56924 24.8303 6.70223 24.8303C6.99481 24.8303 7.1278 24.5399 7.1278 23.9369L7.3406 24.8303C7.3406 25.0759 7.50019 25.2993 7.76617 25.5449L8.19175 25.3663C8.35134 25.2546 8.48433 25.1876 8.61732 25.1876L9.25568 25.7236L9.46847 25.6343C9.46847 25.6343 9.65466 25.5673 9.78765 25.4556C9.78765 25.9246 9.97385 26.1703 10.3196 26.1703C10.3994 26.1703 10.5058 26.081 10.6388 25.9023L10.958 26.5276L11.2772 27.3316C11.4368 27.3986 11.6229 27.354 11.8623 27.2423C12.1283 27.1306 12.2879 26.9743 12.3411 26.7956L13.2987 26.7956C13.2987 27.086 13.405 27.421 13.6178 27.7783L13.5114 27.8676L13.5114 28.0463C13.3785 27.8676 13.2455 27.7783 13.0859 27.7783L11.9155 27.957ZM46.2808 29.1183L45.6424 29.3863C45.6424 29.3863 45.5094 29.364 45.4296 29.3416C45.3764 29.3193 45.2966 29.297 45.2169 29.297C44.9509 29.23 44.6849 29.1853 44.4721 29.1183L43.6209 29.1183C43.2752 29.1183 43.0624 29.2076 42.9826 29.3863L42.7698 29.1183C42.7698 29.1183 42.6368 29.1853 42.557 29.297C42.5038 29.364 42.3974 29.3863 42.2378 29.3863C42.1048 29.3863 41.9186 29.3193 41.6527 29.2076C41.4133 29.096 41.1739 28.9396 40.9611 28.761L41.0675 28.761L40.9611 28.6716C40.9611 28.6716 40.6153 28.8726 40.3227 29.297C40.3227 29.1183 40.0567 28.9396 39.4716 28.761C39.3386 28.694 39.179 28.6493 38.9928 28.5823C38.8332 28.5153 38.6204 28.493 38.4076 28.493C38.1417 28.493 37.8491 28.6716 37.5565 29.029C37.5033 28.8503 37.3703 28.7386 37.1841 28.7163C37.0245 28.694 36.8117 28.694 36.5989 28.761C36.5457 28.6493 36.4393 28.5153 36.333 28.4036C36.2266 28.292 36.1202 28.225 35.9606 28.225L35.8542 28.3143C35.5882 28.56 35.3754 28.6716 35.2158 28.6716C35.003 28.6716 34.7902 28.56 34.5775 28.3143L30.0025 28.0463L29.5769 28.493L29.2578 28.225C29.2578 28.225 29.045 28.225 28.8322 28.5823L27.8746 28.493C27.8214 28.2473 27.6618 28.1133 27.4491 28.0463C27.2363 28.225 27.1299 28.3813 27.1299 28.493C27.1299 28.6046 26.9969 28.4706 26.7043 28.0463L19.4695 27.5996C19.4695 27.5996 19.2567 27.8006 19.2567 27.8676C19.2035 27.9346 19.1503 27.9793 19.0971 28.0016C19.0705 28.024 19.0173 28.0463 18.9375 28.0463C18.8045 28.225 18.6184 28.225 18.4056 28.0463C18.2726 28.0463 18.0598 27.9793 17.7672 27.8676L16.9161 27.957L16.2777 27.8676C16.0649 27.756 15.9053 27.7113 15.7457 27.7783C15.6127 27.8453 15.4797 27.957 15.3201 28.1356C15.2669 28.0686 15.1339 27.9793 14.9478 27.8676C14.7882 27.756 14.5754 27.689 14.3626 27.689C14.4424 27.3316 14.4424 26.9743 14.3626 26.617C14.3626 26.1926 14.5754 25.9693 15.001 25.9023C15.2935 26.148 15.4265 26.349 15.4265 26.5276C15.5861 26.818 15.8255 26.9743 16.1713 26.9743C16.4639 27.0413 16.7831 26.952 17.1288 26.7063C17.6342 26.5276 17.98 26.5053 18.1928 26.617L18.7248 26.349C19.0173 26.7063 19.3365 26.6393 19.6823 26.1703C19.8419 26.4606 20.2675 26.617 20.959 26.617C21.6506 26.617 22.1825 26.617 22.4485 26.7063C22.6081 26.885 22.7411 26.9966 22.8741 27.0636C23.0337 27.2423 23.4061 27.2423 24.0445 27.0636C24.47 26.952 24.736 26.885 24.7892 26.885L25.2148 26.9743C25.7999 27.086 26.1457 27.153 26.2787 27.153C26.2255 27.086 26.5447 27.153 27.2363 27.3316C27.4491 27.4433 27.6352 27.5103 27.7682 27.5103L28.3002 27.421C28.6726 27.421 28.9918 27.354 29.2578 27.2423C29.4705 27.2423 29.6301 27.22 29.6833 27.153L30.7473 27.0636C31.1197 27.0636 31.5452 27.1753 32.024 27.421C32.6092 27.6666 32.9815 27.7783 33.1943 27.7783C33.5667 27.7783 33.7263 27.5326 33.7263 27.0636L33.7263 27.7783C34.1519 27.957 34.6307 27.957 35.1094 27.7783L36.067 27.5996C36.2266 27.5996 36.4394 27.7113 36.7053 27.957L37.5565 28.6716C37.5565 28.6716 37.6097 28.493 37.6629 28.493L37.6629 28.0463L37.5565 28.0463L37.5565 27.5996C37.7693 27.7113 38.0619 27.8453 38.4076 27.957C38.78 28.0686 39.0992 28.1356 39.3652 28.1356C39.578 28.1356 40.1631 28.0463 41.0675 27.8676L41.0675 28.225C41.4399 28.3366 41.6527 28.3813 41.7059 28.3143C41.7856 28.1356 41.9186 28.1356 42.1314 28.3143L42.9826 28.493C43.8337 28.493 44.3391 28.56 44.4721 28.6716C44.6317 28.7833 44.7647 28.8503 44.8977 28.8503C45.3233 28.8503 45.802 28.7833 46.334 28.6716C46.866 28.56 47.2383 28.426 47.4511 28.3143C47.4511 28.493 47.5575 28.7386 47.7703 29.029C47.9299 29.029 48.0363 29.0066 48.0895 28.9396C48.3023 28.9396 48.4087 28.8726 48.4087 28.761L48.4087 29.297L48.1959 29.297C48.1959 29.297 48.1427 29.3863 47.9831 29.3863C47.8501 29.3863 47.6373 29.297 47.3447 29.1183C47.2117 29.0066 47.0256 28.9396 46.8128 28.9396C46.6 28.9396 46.4404 29.0066 46.2808 29.1183ZM50.3238 29.565C50.3238 29.565 50.0046 29.4756 49.7918 29.297C49.9514 29.297 49.7652 29.1406 49.2598 28.8503L50.5366 28.9396C50.6961 28.9396 50.8557 29.029 51.0685 29.2076C51.4941 29.3193 51.7601 29.3863 51.8133 29.3863C51.8931 29.3863 51.9995 29.4086 52.1325 29.431C52.2921 29.4533 52.558 29.4756 52.9836 29.4756C53.5688 29.5873 53.888 29.6543 53.9412 29.6543L50.3238 29.565ZM55.0051 29.6543C55.0051 29.6543 55.2179 29.565 55.6435 29.565C55.8031 29.565 55.8563 29.6767 55.8563 29.9223C55.5105 29.9223 55.2179 29.833 55.0051 29.6543ZM63.1974 30.0116L63.8358 30.101L63.5166 30.369L63.1974 30.0116ZM91.3387 26.617L91.1259 26.885L91.1259 27.0636L91.0195 26.885C91.0195 26.885 90.9131 26.7063 90.9131 26.5276L91.3387 26.617ZM94.4241 25.1876L94.3177 25.3663L94.2113 25.277L94.3177 25.0983L94.4241 25.1876ZM93.041 25.1876C93.041 25.4333 92.908 25.545 92.6154 25.545C92.3228 25.545 92.1898 25.3886 92.1898 25.0983L92.2962 24.2943L92.1898 24.2943L92.1898 23.7583L92.4026 23.7583L92.4026 24.2943L92.2962 24.2943C92.2962 24.2943 92.4292 24.4059 92.4558 24.4729C92.4824 24.5399 92.5356 24.6293 92.6154 24.741L93.041 25.1876ZM93.6793 24.1156L93.5729 24.6516C93.5729 24.6516 93.3601 24.54 93.1473 24.3389C92.9346 24.1379 92.8282 23.9369 92.8282 23.7583L92.9346 23.4903C92.9346 23.4903 93.041 23.3339 93.041 23.2223C93.4665 23.2893 93.6793 23.5796 93.6793 24.1156ZM88.3596 23.4009L88.3596 23.5796C88.3596 23.5796 88.2532 23.6466 88.2532 23.7583L88.1468 23.4009C88.0138 23.2893 87.934 23.1999 87.934 23.1329C87.7213 22.9543 87.6149 22.7979 87.6149 22.6863C87.6149 22.4406 87.6947 22.3289 87.8276 22.3289C87.9606 22.3289 88.1202 22.2173 88.2532 21.9716C88.2532 22.0833 88.2798 22.1503 88.3596 22.1503L88.3596 22.5076L88.1468 22.8649C88.2798 23.1106 88.3596 23.2893 88.3596 23.4009ZM90.2747 21.8823C90.2747 21.8823 90.5673 22.0833 90.7003 22.3289C90.5673 22.5746 90.3811 22.6863 90.1683 22.6863C90.0353 22.6863 89.8757 22.6193 89.7427 22.5076L89.8491 21.6143L90.2747 21.8823ZM100.834 18.8896L104.239 18.8896L104.239 18.9789L104.452 18.9789C104.664 18.9789 104.771 19.0012 104.771 19.0682L105.09 19.1576L105.09 19.5149C105.09 19.6266 104.984 19.8499 104.771 20.1403L104.345 20.1403L104.239 20.4976C104.239 20.6093 104.159 20.6093 104.026 20.4976L103.813 20.4083L102.962 20.4083C102.749 20.3413 102.43 20.3859 102.005 20.4976L101.898 20.5869C101.898 20.5869 101.712 20.6763 101.579 20.6763C101.446 20.6763 101.34 20.6539 101.26 20.5869C101.26 20.4753 101.18 20.4083 101.047 20.4083L97.8553 20.3189C97.4297 20.2519 96.8711 20.2296 96.153 20.2296C95.3816 20.2296 94.8497 20.2519 94.5571 20.3189L94.2379 20.4083C94.2379 20.4083 93.9453 20.5869 93.8123 20.5869L93.7059 20.4976L93.4931 20.3189C92.9346 20.3189 92.5356 20.3413 92.3228 20.4083L85.7264 20.4083L85.7264 18.8896L86.5775 18.9789C87.0031 19.0459 87.3223 19.0459 87.5351 18.9789C87.8808 18.9789 88.1734 18.9566 88.3862 18.8896C88.6788 18.8226 88.9448 18.8226 89.2374 18.8896C89.3172 18.8896 89.3704 18.9119 89.397 18.9342C89.4236 18.9342 89.4768 18.9789 89.5566 18.9789L89.7693 19.0682L90.1949 18.9789C90.4875 18.9119 90.7535 18.9566 91.0461 19.0682C91.0461 19.1352 91.1525 19.1576 91.3653 19.1576C91.4982 19.1576 91.6046 19.1352 91.6844 19.0682L91.8972 18.9789L94.8763 18.9789C94.8763 18.9789 95.222 18.8896 95.5146 18.8896C96.2328 18.8896 96.7647 18.9119 97.1105 18.9789L99.7704 18.9789C99.7704 18.9789 99.8502 18.8002 99.9832 18.8002C100.409 18.8002 100.701 18.8002 100.834 18.8896ZM98.1479 17.6836L98.0415 18.2196L97.9351 17.6836L98.1479 17.6836ZM97.2967 16.1649C97.2967 15.9862 97.3233 15.8299 97.4031 15.7182L97.5095 15.7182L97.6159 15.6289C97.7489 15.8746 97.8287 16.0532 97.8287 16.1649L97.8287 16.5222C97.5361 16.6339 97.3765 16.7679 97.2967 16.8796C97.1637 16.9912 97.0041 17.0582 96.8711 17.0582L96.3392 16.9689L95.7008 16.7902C95.7008 16.7902 95.5944 16.7679 95.5944 16.7009L95.3816 16.6116L95.2752 16.4329L94.6369 16.6116C94.6369 16.6116 94.6103 16.4776 94.5837 16.3882C94.5571 16.2989 94.5571 16.2319 94.6369 16.1649L94.6369 15.7182L94.956 15.7182C94.956 15.7182 95.1688 15.8076 95.3816 15.8076C95.4614 15.8076 95.5678 15.7406 95.7008 15.6289L96.1264 15.4502L96.3392 15.8076C96.4722 16.0979 96.6583 16.3212 96.8711 16.4329C97.0041 16.4329 97.1105 16.4999 97.1903 16.6116C97.3233 16.4999 97.3765 16.3436 97.2967 16.1649ZM92.2962 15.3609L92.8282 15.3609L92.8282 15.6289L92.9346 15.8969C92.8016 15.9639 92.642 16.0086 92.4558 16.0309C92.2696 16.0532 92.11 16.1426 91.977 16.2542C91.7642 16.0756 91.6578 15.9192 91.6578 15.8076L91.6578 15.6289L91.7642 15.5396L91.7642 15.3609C91.7642 15.3609 91.8972 15.3386 91.977 15.3162C92.0568 15.2939 92.1632 15.2939 92.2962 15.3609ZM77.6138 15.5396C77.6138 15.5396 77.7202 15.8076 77.7202 15.9862C77.7202 16.2766 77.6404 16.4552 77.5074 16.5222L77.0819 16.5222L77.0819 16.2542C77.0819 16.2542 76.9755 15.9192 76.9755 15.4502L77.2946 15.1822C77.2946 15.1822 77.401 15.3609 77.6138 15.5396ZM65.0061 15.8076L64.8997 15.8076L64.7934 15.8969L64.4742 15.8969C64.4742 15.8969 64.3678 15.9862 64.155 15.9862L64.155 15.2716C64.3678 15.0259 64.6338 14.9142 64.8997 14.9142C65.0593 15.2716 65.0859 15.5619 65.0061 15.8076ZM62.8251 1.78212L62.9315 2.31813C62.9315 2.31813 62.8251 2.74247 62.6123 3.21147L61.8675 4.81948L61.2292 6.42749L60.91 7.14216L60.91 8.21417C60.91 8.81717 60.8036 9.28617 60.5908 9.64351C60.378 10.0008 60.245 10.2688 60.1652 10.4475C60.0854 10.6262 60.0322 10.9165 59.9524 11.3409C59.8726 11.7652 59.6332 11.9662 59.2077 11.9662C59.0747 11.9662 58.9151 11.8992 58.7821 11.7429C58.6491 11.5865 58.5693 11.4525 58.5693 11.3409C58.5693 10.6262 58.6491 10.0232 58.7821 9.55418C58.9949 9.08518 59.3407 8.48217 59.846 7.7675C59.979 7.7005 60.0588 7.4995 60.0588 7.14216C60.0588 6.71783 59.9258 6.31582 59.6332 5.89148C59.7662 5.64582 59.846 5.46715 59.846 5.35548L60.1652 4.99815C60.1652 4.99815 60.3514 4.55147 60.6972 4.01547L60.6972 2.13946C60.6972 2.13946 60.7238 2.02779 60.8036 1.96079C60.9366 1.96079 61.0164 1.89379 61.0164 1.78212L62.8251 1.78212Z" fill="#471515"/>
</svg>
